<svg version="1" xmlns="http://www.w3.org/2000/svg" width="21.333" height="21.333" viewBox="0 0 16.000000 16.000000"><path d="M.056 4.454C-.013 5.985.333 7.19 1.08 7.974c.753.797 2.027 1.305 3.314 1.324.138 0 .25.007.25.013 0 0-.037.132-.087.288-.176.578-.038 1.174.389 1.645.313.35.633.489 1.16.489h.427l-.37-.364c-.445-.433-.653-.816-.678-1.236-.006-.245.094-.697.195-.835.006-.006.15.013.314.05.972.22 1.644.898 1.913 1.94l.107.401.044-.276c.113-.69.715-1.55 1.28-1.82.257-.119.835-.307.967-.307.025 0 .087.15.144.332.188.64.006 1.161-.615 1.757-.414.396-.42.383.207.358.784-.031 1.418-.703 1.475-1.55.012-.2-.02-.458-.07-.602a1.179 1.179 0 0 1-.075-.264 7.68 7.68 0 0 1 .584-.05c1.493-.107 2.667-.734 3.363-1.814.496-.771.697-1.77.621-3.062-.006-.213-.012-.2-.138.157-.389 1.13-1.135 2.046-2.058 2.535-.69.37-1.085.458-2.347.54-.54.038-1.28.257-1.732.514-.282.164-.978.703-1.098.848-.602.746-.62.765-.69.558-.063-.2-.847-.948-1.318-1.261a4.36 4.36 0 0 0-2.001-.665C3.45 7.56 2.962 7.453 2.328 7.12 1.368 6.613.646 5.759.245 4.66l-.176-.49-.013.283z" /></svg>